<svg width="17" height="17" viewBox="0 0 17 17" fill="none" xmlns="http://www.w3.org/2000/svg">
<path d="M8.50004 9.51293C8.79026 9.51293 9.07764 9.45576 9.34577 9.3447C9.6139 9.23364 9.85753 9.07085 10.0627 8.86563C10.268 8.66041 10.4307 8.41679 10.5418 8.14866C10.6529 7.88053 10.71 7.59315 10.71 7.30293C10.71 7.0127 10.6529 6.72533 10.5418 6.4572C10.4307 6.18907 10.268 5.94544 10.0627 5.74022C9.85753 5.535 9.6139 5.37222 9.34577 5.26115C9.07764 5.15009 8.79026 5.09293 8.50004 5.09293C7.91391 5.09293 7.35179 5.32576 6.93733 5.74022C6.52288 6.15468 6.29004 6.7168 6.29004 7.30293C6.29004 7.88905 6.52288 8.45118 6.93733 8.86563C7.35179 9.28009 7.91391 9.51293 8.50004 9.51293Z" stroke="#565656" stroke-width="1.1875"/>
<path d="M2.56429 6.01376C3.9597 -0.12041 13.0476 -0.113326 14.436 6.02084C15.2505 9.61917 13.0122 12.665 11.0501 14.5492C10.3645 15.2104 9.44911 15.5799 8.49658 15.5799C7.54404 15.5799 6.62865 15.2104 5.94304 14.5492C3.98804 12.665 1.7497 9.61209 2.56429 6.01376Z" stroke="#565656" stroke-width="1.1875"/>
</svg>
