<svg width="16" height="17" viewBox="0 0 16 17" fill="none" xmlns="http://www.w3.org/2000/svg">
<path d="M6.02007 14.96L7.57341 13.6534C7.80674 13.4534 8.19341 13.4534 8.42674 13.6534L9.98007 14.96C10.3401 15.14 10.7801 14.96 10.9134 14.5734L11.2067 13.6867C11.2801 13.4734 11.2067 13.16 11.0467 13L9.53341 11.48C9.42007 11.3734 9.33341 11.16 9.33341 11.0067V9.10669C9.33341 8.82669 9.54007 8.69336 9.80007 8.80003L13.0734 10.2134C13.5867 10.4334 14.0067 10.16 14.0067 9.60003V8.74003C14.0067 8.29336 13.6734 7.78003 13.2601 7.60669L9.53341 6.00003C9.47629 5.9707 9.42781 5.927 9.39273 5.87322C9.35766 5.81944 9.33721 5.75745 9.33341 5.69336V3.69336C9.33341 3.06669 8.87341 2.32669 8.31341 2.04003C8.11341 1.94003 7.88007 1.94003 7.68007 2.04003C7.12008 2.32669 6.66007 3.07336 6.66007 3.70003V5.70003C6.66007 5.82003 6.56674 5.96003 6.46007 6.00669L2.74007 7.61336C2.32674 7.78003 1.99341 8.29336 1.99341 8.74003V9.60003C1.99341 10.16 2.41341 10.4334 2.92674 10.2134L6.20007 8.80003C6.45341 8.68669 6.66674 8.82669 6.66674 9.10669V11.0067C6.66674 11.16 6.58007 11.3734 6.47341 11.48L4.96007 13C4.80007 13.16 4.72674 13.4667 4.80007 13.6867L5.09341 14.5734C5.21341 14.96 5.65341 15.1467 6.02007 14.96Z" stroke="#565656" stroke-width="1.1" stroke-linecap="round" stroke-linejoin="round"/>
</svg>
