<svg width="13" height="13" viewBox="0 0 13 13" fill="none" xmlns="http://www.w3.org/2000/svg">
<path d="M7.33327 1.19585L8.43327 3.39585C8.58327 3.7021 8.98327 3.99585 9.32077 4.0521L11.3145 4.38335C12.5895 4.59585 12.8895 5.52085 11.9708 6.43335L10.4208 7.98335C10.1583 8.24585 10.0145 8.7521 10.0958 9.1146L10.5395 11.0333C10.8895 12.5521 10.0833 13.1396 8.73952 12.3458L6.87077 11.2396C6.53327 11.0396 5.97702 11.0396 5.63327 11.2396L3.76452 12.3458C2.42702 13.1396 1.61452 12.5458 1.96452 11.0333L2.40827 9.1146C2.48952 8.7521 2.34577 8.24585 2.08327 7.98335L0.533268 6.43335C-0.379232 5.52085 -0.0854815 4.59585 1.18952 4.38335L3.18327 4.0521C3.51452 3.99585 3.91452 3.7021 4.06452 3.39585L5.16452 1.19585C5.76452 0.00209963 6.73952 0.00209963 7.33327 1.19585Z" fill="#9747FF"/>
</svg>
